<svg width="29" height="29" viewBox="0 0 29 29" fill="none" xmlns="http://www.w3.org/2000/svg">
<path fill-rule="evenodd" clip-rule="evenodd" d="M5.68216 11.9956L13.2583 4.4195L14.2011 5.3623L6.62497 12.9384L5.68216 11.9956Z" fill="#999999"/>
<path fill-rule="evenodd" clip-rule="evenodd" d="M8.19621 14.5097L15.7724 6.93353L16.7152 7.87634L9.13902 15.4525L8.19621 14.5097Z" fill="#999999"/>
<path fill-rule="evenodd" clip-rule="evenodd" d="M13.5389 19.8523L21.115 12.2762L22.0578 13.219L14.4817 20.7951L13.5389 19.8523Z" fill="#999999"/>
<path fill-rule="evenodd" clip-rule="evenodd" d="M16.0529 22.3664L23.6291 14.7902L24.5719 15.733L16.9957 23.3092L16.0529 22.3664Z" fill="#999999"/>
<path fill-rule="evenodd" clip-rule="evenodd" d="M16.053 22.3665C13.4379 24.9816 9.20735 24.991 6.60385 22.3875C4.00036 19.7841 4.00978 15.5535 6.6249 12.9384L5.68209 11.9956C2.54394 15.1337 2.53264 20.2104 5.65683 23.3346C8.78103 26.4588 13.8577 26.4475 16.9958 23.3093L16.053 22.3665Z" fill="#999999"/>
<path fill-rule="evenodd" clip-rule="evenodd" d="M21.115 12.2762L22.0578 13.219C24.4986 10.7782 24.5074 6.8297 22.0774 4.39978C19.6475 1.96985 15.699 1.97864 13.2583 4.41942L14.2011 5.36223C16.1188 3.44447 19.2212 3.43756 21.1304 5.34679C23.0397 7.25602 23.0327 10.3584 21.115 12.2762Z" fill="#999999"/>
<path fill-rule="evenodd" clip-rule="evenodd" d="M8.19646 14.51C6.45305 16.2534 6.44677 19.0738 8.18243 20.8094C9.91809 22.5451 12.7384 22.5388 14.4819 20.7954L13.539 19.8526C12.3187 21.073 10.3444 21.0774 9.12945 19.8624C7.91448 18.6475 7.91888 16.6732 9.13927 15.4528L8.19646 14.51Z" fill="#999999"/>
</svg>
